<svg xmlns="http://www.w3.org/2000/svg" width="24" height="24" viewBox="0 0 24 24" fill="none" stroke="currentColor" stroke-width="2" stroke-linecap="round" stroke-linejoin="round" aria-label="GitHub">
  <path d="M12 2 C6.48 2 2 6.48 2 12 C2 16.42 4.87 20.17 8.84 21.5 C9.34 21.58 9.5 21.27 9.5 21 C9.5 20.77 9.5 20.14 9.5 19.31 C6.73 19.91 6.14 17.97 6.14 17.97 C5.68 16.81 5.03 16.5 5.03 16.5 C4.12 15.88 5.1 15.9 5.1 15.9 C6.1 15.97 6.63 16.93 6.63 16.93 C7.5 18.45 8.97 18 9.54 17.76 C9.63 17.11 9.89 16.67 10.17 16.42 C7.95 16.17 5.62 15.31 5.62 11.5 C5.62 10.39 6 9.5 6.65 8.79 C6.55 8.54 6.2 7.5 6.75 6.15 C6.75 6.15 7.59 5.81 9.5 7.1 C10.29 6.88 11.15 6.77 12 6.77 C12.85 6.77 13.71 6.88 14.5 7.1 C16.41 5.81 17.25 6.15 17.25 6.15 C17.8 7.5 17.45 8.54 17.35 8.79 C18 9.5 18.38 10.39 18.38 11.5 C18.38 15.32 16.04 16.16 13.81 16.41 C14.17 16.72 14.5 17.33 14.5 18.26 C14.5 19.6 14.5 20.68 14.5 21 C14.5 21.27 14.66 21.59 15.17 21.5 C19.14 20.16 22 16.42 22 12 C22 6.48 17.52 2 12 2 Z" />
</svg>

